<?xml version="1.0" encoding="utf-8"?>
<!-- Generator: Adobe Illustrator 22.1.0, SVG Export Plug-In . SVG Version: 6.00 Build 0)  -->
<svg version="1.1" id="Layer_1" xmlns="http://www.w3.org/2000/svg" xmlns:xlink="http://www.w3.org/1999/xlink" x="0px" y="0px"
	 viewBox="0 0 480.8 152.1" style="enable-background:new 0 0 480.8 152.1;" xml:space="preserve">
<style type="text/css">
	.st0{fill:#F4A51D;}
	.st1{fill:#FFFFFF;}
</style>
<g>
	<g>
		<path d="M72.6,111.9c-5.5,5-13.3,8.4-24.2,8.4c-22.9,0-39-16.7-39-39.6c0-22.8,16.1-39.5,39-39.5c11.5,0,21.2,4.1,25.4,10.1
			c0.8,0.9,1.1,2.2,1.1,3.4c0,4.4-3.9,7.2-7.8,7.2c-1.7,0-3.4-0.5-4.8-1.6c-3.9-3-8.3-4.4-13.1-4.4c-13.6,0-22.6,10.1-22.6,24.7
			c0,14.5,9.1,24.8,22.6,24.8c5,0,9.2-1.6,13.1-4.5c1.6-1.1,3.1-1.6,4.8-1.6c4.1,0,8,3,8,7.3C75.1,108.7,74.4,110.7,72.6,111.9z"/>
		<path d="M110.2,23.6c0,5.8-4.7,10.3-10.3,10.3c-5.6,0-10.3-4.5-10.3-10.3c0-5.6,4.7-10.1,10.3-10.1
			C105.6,13.5,110.2,18,110.2,23.6z M99.9,119.4c-4.7,0-8.3-3.7-8.3-8.3V50.3c0-4.4,3.6-8.1,8.6-8.1c4.4,0,8.1,3.7,8.1,8.1v60.9
			C108.4,115.7,104.6,119.4,99.9,119.4z"/>
		<path d="M152.2,120.4c-12.8,0-19.5-6.9-19.5-19.5V57.8h-6.2c-3.9,0-7.2-3.3-7.2-7.5c0-3.9,3.3-7.2,7.2-7.2h6.2V29.9
			c0-4.5,3.7-8.3,8.6-8.3c4.5,0,8.1,3.7,8.1,8.3v13.3h9.2c3.9,0,7,3.3,7,7.5c0,3.9-3.1,7.2-7,7.2h-9.2v38.9c0,5.8,3.3,8.9,7.2,8.9
			c1.1,0,2.5-0.5,3.4-0.5c4.5,0,7.3,3.1,7.3,7.2C167.4,117.2,162.8,120.4,152.2,120.4z"/>
		<path d="M243.8,53.4l-32.1,78.5c-5,12.3-13.9,17.2-24.5,17.2c-5.8,0-11.1-2.2-11.1-7.5c0-4.1,3.3-7.5,7.8-7.5c1.1,0,2,0.2,3.1,0
			c3.7-0.3,6.9-2,8.7-6.2l3.7-8.4l-27-66.2c-0.3-0.9-0.5-1.9-0.5-2.8c0-4.1,3.3-8.3,8.4-8.3c3.3,0,6.4,2,7.8,5.5l20,51.5l20-51.5
			c1.1-3.3,4.4-5.5,8-5.5c4.8,0,8.3,4.1,8.3,8.1C244.5,51.4,244.3,52.5,243.8,53.4z"/>
		<path d="M361.8,52.5l-18.3,59c-1.4,4.7-5.9,8-10.8,8h-0.3c-5,0-9.4-3.3-10.8-8l-15.1-47.9l-15.1,47.9c-1.4,4.7-5.9,8-10.9,8h-0.3
			c-4.8,0-9.2-3.3-10.6-8l-18.4-59c-0.2-0.8-0.3-1.6-0.3-2.3c0-3.9,3.3-8,8.3-8c3.6,0,7,2.3,8,5.8l14.4,49.5l15.9-48.7
			c1.2-3.9,4.8-6.6,9.4-6.6c4.1,0,7.6,2.7,9,6.6l15.9,48.7L346,48c0.9-3.4,4.4-5.8,8-5.8c4.8,0,8.3,3.7,8.3,8
			C362.3,50.9,362.1,51.7,361.8,52.5z"/>
		<path d="M384.4,119.4c-4.7,0-8.3-3.7-8.3-8.3V50.3c0-4.4,3.6-8.1,8.6-8.1c4.4,0,8.1,3.7,8.1,8.1v60.9
			C392.9,115.7,389.1,119.4,384.4,119.4z"/>
		<path d="M464.3,118.5h-46.7c-4.4,0-8.1-3.6-8.1-8.6c0-1.9,0.8-3.7,1.9-5.3l35.9-46.8h-30.6c-3.9,0-7.2-3.3-7.2-7.5
			c0-3.9,3.3-7.2,7.2-7.2h46c3.9,0,7.8,3.4,7.8,8.1c0,2-0.6,3.9-1.7,5.3L432.5,104h31.8c3.7,0,7,3.1,7,7
			C471.4,115.2,468.1,118.5,464.3,118.5z"/>
	</g>
	<path class="st0" d="M399.4,13.7l-9.4-0.9L386.2,4c-0.3-0.6-0.9-1.1-1.6-1.1s-1.4,0.4-1.6,1.1l-3.8,8.7l-9.4,0.9
		c-0.7,0.1-1.3,0.6-1.5,1.2c-0.2,0.7,0,1.4,0.5,1.9l7.1,6.3l-2,9.2c-0.2,0.7,0.1,1.4,0.7,1.8c0.6,0.4,1.4,0.4,2,0.1l8.2-4.8l8.2,4.8
		c0.3,0.2,0.6,0.2,0.9,0.2c0.4,0,0.7-0.1,1-0.3c0.6-0.4,0.8-1.1,0.7-1.8l-2-9.2l7.1-6.3c0.5-0.5,0.7-1.2,0.5-1.9
		C400.7,14.2,400.1,13.7,399.4,13.7z"/>
</g>
</svg>
