<?xml version="1.0" encoding="UTF-8"?>
<svg width="240px" height="43px" viewBox="0 0 240 43" version="1.1" xmlns="http://www.w3.org/2000/svg" xmlns:xlink="http://www.w3.org/1999/xlink">
    <!-- Generator: Sketch 52.6 (67491) - http://www.bohemiancoding.com/sketch -->
    <title>logo-cw-togo</title>
    <desc>Created with Sketch.</desc>
    <defs>
        <linearGradient x1="50%" y1="78.5087169%" x2="50%" y2="0%" id="linearGradient-1">
            <stop stop-color="#FF8341" offset="0%"></stop>
            <stop stop-color="#FF9700" offset="100%"></stop>
        </linearGradient>
    </defs>
    <g id="Page-1" stroke="none" stroke-width="1" fill="none" fill-rule="evenodd">
        <g id="logo-cw-togo">
            <g id="Group-2" transform="translate(148.150150, 6.454581)">
                <path d="M8.9760826,26.9282478 C11.8688486,26.9282478 13.1025282,26.0774343 13.1025282,24.7161327 C13.1025282,23.6100751 12.336796,22.7592616 11.1031164,22.7592616 C10.8478723,22.7592616 10.4650063,22.8868836 10.1672215,22.8868836 C9.10370463,22.8868836 8.21035044,22.0360701 8.21035044,20.4620651 L8.21035044,9.8694368 L10.7202503,9.8694368 C11.7837672,9.8694368 12.6345807,8.9760826 12.6345807,7.91256571 C12.6345807,6.76396746 11.7837672,5.87061327 10.7202503,5.87061327 L8.21035044,5.87061327 L8.21035044,2.25465582 C8.21035044,1.02097622 7.23191489,-1.88084842e-13 5.99823529,-1.88084842e-13 C4.67947434,-1.88084842e-13 3.65849812,1.02097622 3.65849812,2.25465582 L3.65849812,5.87061327 L1.95687109,5.87061327 C0.893354193,5.87061327 -4.17809578e-13,6.76396746 -4.17809578e-13,7.82748436 C-4.17809578e-13,8.9760826 0.893354193,9.8694368 1.95687109,9.8694368 L3.65849812,9.8694368 L3.65849812,21.6106633 C3.65849812,25.0564581 5.48774718,26.9282478 8.9760826,26.9282478 Z M25.7371089,26.9282478 C32.3309136,26.9282478 36.3297372,22.0360701 36.3297372,16.1229161 C36.3297372,10.2523029 32.3309136,5.36012516 25.7371089,5.36012516 C19.1433041,5.36012516 15.1444806,10.2523029 15.1444806,16.1229161 C15.1444806,22.0360701 19.1433041,26.9282478 25.7371089,26.9282478 Z M25.7371089,22.8868836 C21.9509887,22.8868836 19.8664956,19.7388736 19.8664956,16.1229161 C19.8664956,12.5494994 21.9509887,9.40148936 25.7371089,9.40148936 C29.4806884,9.40148936 31.5651815,12.5494994 31.5651815,16.1229161 C31.5651815,19.7388736 29.4806884,22.8868836 25.7371089,22.8868836 Z M54.7733166,34.7557322 C59.8356571,34.7557322 65.3659449,32.7563204 65.3659449,25.3117021 L65.3659449,7.87002503 C65.3659449,6.63634543 64.3449687,5.61536921 63.1538298,5.61536921 C61.7925282,5.61536921 60.8140926,6.63634543 60.8140926,7.87002503 L60.8140926,8.67829787 C59.1550063,6.55126408 56.8152691,5.36012516 54.2628285,5.36012516 C48.9877847,5.36012516 45.1591239,9.23132666 45.1591239,15.9102128 C45.1591239,22.6741802 49.0303254,26.4177597 54.2628285,26.4177597 C56.9003504,26.4177597 59.2400876,25.0989987 60.8140926,23.0570463 L60.8140926,25.4393242 C60.8140926,29.6933917 57.6660826,31.0121527 54.7733166,31.0121527 C52.7313642,31.0121527 51.0297372,30.5867459 49.4982728,29.4806884 C49.1579474,29.267985 48.817622,29.1829036 48.4772966,29.1829036 C47.4137797,29.1829036 46.5204255,29.9911765 46.5204255,31.097234 C46.5204255,31.5226408 46.6905882,31.9480476 46.9032916,32.2458323 C48.562378,34.1601627 52.0507134,34.7557322 54.7733166,34.7557322 Z M55.5815895,22.4189362 C52.0932541,22.4189362 49.8385982,19.8239549 49.8385982,15.9102128 C49.8385982,11.9964706 52.0932541,9.40148936 55.5815895,9.40148936 C57.6660826,9.40148936 59.8356571,10.5926283 60.8140926,12.1240926 L60.8140926,19.6537922 C59.8356571,21.1852566 57.6660826,22.4189362 55.5815895,22.4189362 Z M80.4678849,26.9282478 C87.0616896,26.9282478 91.0605131,22.0360701 91.0605131,16.1229161 C91.0605131,10.2523029 87.0616896,5.36012516 80.4678849,5.36012516 C73.8740801,5.36012516 69.8752566,10.2523029 69.8752566,16.1229161 C69.8752566,22.0360701 73.8740801,26.9282478 80.4678849,26.9282478 Z M80.4678849,22.8868836 C76.6817647,22.8868836 74.5972716,19.7388736 74.5972716,16.1229161 C74.5972716,12.5494994 76.6817647,9.40148936 80.4678849,9.40148936 C84.2114643,9.40148936 86.2959574,12.5494994 86.2959574,16.1229161 C86.2959574,19.7388736 84.2114643,22.8868836 80.4678849,22.8868836 Z" id="togo" fill="#000000" fill-rule="nonzero"></path>
                <path d="M5.968832,31.7807138 L39.0539384,31.7994872 C40.3534317,31.8002246 41.4062814,32.8542698 41.4055444,34.1537632 C41.404829,35.4138779 40.4136758,36.4420706 39.1687052,36.5025559 L39.0512681,36.5053688 L5.96616174,36.4865954 C4.66666842,36.485858 3.6138187,35.4318128 3.61455569,34.1323194 C3.6152711,32.8722047 4.60642437,31.844012 5.85139489,31.7835267 L5.968832,31.7807138 Z" id="Line-2-Copy" fill="#F5A405"></path>
                <path d="M89.3279474,31.7994869 C90.627441,31.7994869 91.6808886,32.8529345 91.6808886,34.152428 C91.6808886,35.412543 90.6903189,36.441298 89.4453829,36.5024896 L89.3279474,36.5053692 L71.9249437,36.5053692 C70.6254502,36.5053692 69.5720025,35.4519216 69.5720025,34.152428 C69.5720025,32.8923131 70.5625722,31.8635581 71.8075082,31.8023665 L71.9249437,31.7994869 L89.3279474,31.7994869 Z" id="Line-2-Copy-2" fill="#F5A405"></path>
            </g>
            <g id="Group-20">
                <g id="Clip-2" transform="translate(103.000000, 0.000000)" fill="url(#linearGradient-1)">
                    <path d="M5.403218,-0.000153220097 C5.344995,0.00137898087 5.285239,0.00827388521 5.225483,0.0228297944 C4.991056,0.0795212301 4.799531,0.251893839 4.694575,0.469466376 L3.807431,2.30197873 C3.670299,2.58466981 3.403696,2.78232373 3.092659,2.82982196 L1.083944,3.13702826 C0.84492,3.17380108 0.623517,3.30480426 0.498643,3.51318359 C0.30482,3.8357119 0.36764,4.23714855 0.627348,4.48613121 L2.116647,5.91644081 C2.343413,6.13477945 2.447603,6.45041284 2.398572,6.75991744 L2.065319,8.79544642 C2.017054,9.09116121 2.140396,9.3891743 2.384016,9.56231301 C2.521914,9.66037387 2.683562,9.7094043 2.846741,9.70864704 C2.972381,9.7078721 3.097256,9.67722808 3.212171,9.61517394 L5.032426,8.64069412 C5.308988,8.49283673 5.641476,8.48977233 5.921102,8.63379922 L7.755147,9.57840112 C8.020218,9.7162992 8.341214,9.69101789 8.582535,9.51328257 C8.822325,9.33554726 8.941836,9.03676807 8.888976,8.74181939 L8.523546,6.71241921 C8.468386,6.40214851 8.568746,6.08498291 8.791681,5.86434598 L10.258763,4.41105336 C10.471739,4.19960963 10.546051,3.88704063 10.451054,3.60358345 C10.356824,3.31936017 10.108607,3.11327914 9.812127,3.07344192 L7.76817,2.79228304 C7.456368,2.75014751 7.185168,2.55709019 7.044206,2.27516521 L6.116458,0.433459653 C5.984689,0.170687188 5.718086,0.00367728232 5.424669,-0.000153220097 L5.403218,-0.000153220097 Z" id="path-2"></path>
                </g>
                <path d="M18.2981568,31.6956454 C16.7176915,33.1451076 14.4576951,34.1356755 11.2944662,34.1356755 C4.65467331,34.1356755 -0.000153220097,29.2992831 -0.000153220097,22.6602563 C-0.000153220097,16.0648973 4.65467331,11.2323354 11.2944662,11.2323354 C14.6392609,11.2323354 17.4401243,12.4044692 18.6597562,14.1657342 C18.8857559,14.4392321 18.9776879,14.7985332 18.9776879,15.1616648 C18.9776879,16.4272628 17.8461575,17.2400954 16.7176915,17.2400954 C16.2212584,17.2400954 15.7240592,17.1044956 15.3157276,16.7880961 C14.1872616,15.9285314 12.9216636,15.5224982 11.5204658,15.5224982 C7.59113646,15.5224982 4.97030671,18.4597274 4.97030671,22.6602563 C4.97030671,26.8615514 7.59113646,29.8439806 11.5204658,29.8439806 C12.9676297,29.8439806 14.1872616,29.3919813 15.3157276,28.5331826 C15.7692591,28.2175493 16.2212584,28.0804173 16.7176915,28.0804173 C17.8913575,28.0804173 19.0221218,28.9392159 19.0221218,30.2048139 C19.0221218,30.7502774 18.7968882,31.3332799 18.2981568,31.6956454" id="Fill-4" fill="#000000"></path>
                <path d="M26.2060758,33.8667742 C24.8508441,33.8667742 23.8112457,32.782742 23.8112457,31.4719441 L23.8112457,13.8493347 C23.8112457,12.5837367 24.8508441,11.5004706 26.2972418,11.5004706 C27.5628398,11.5004706 28.6476381,12.5837367 28.6476381,13.8493347 L28.6476381,31.4719441 C28.6476381,32.782742 27.5628398,33.8667742 26.2060758,33.8667742 M29.1877389,6.12397743 C29.1877389,7.79484258 27.8332732,9.10487441 26.2060758,9.10487441 C24.5804106,9.10487441 23.2236466,7.79484258 23.2236466,6.12397743 C23.2236466,4.4983122 24.5804106,3.18904648 26.2060758,3.18904648 C27.8332732,3.18904648 29.1877389,4.4983122 29.1877389,6.12397743" id="Fill-7" fill="#000000" fill-rule="nonzero"></path>
                <path d="M41.3417698,34.135369 C37.6392062,34.135369 35.6956093,32.1473383 35.6956093,28.4876763 L35.6956093,16.0209231 L33.8883782,16.0209231 C32.7576139,16.0209231 31.8107137,15.0686602 31.8107137,13.8497944 C31.8107137,12.7197961 32.7576139,11.7705976 33.8883782,11.7705976 L35.6956093,11.7705976 L35.6956093,7.93090203 C35.6956093,6.6201041 36.7796415,5.53683802 38.179307,5.53683802 C39.4916372,5.53683802 40.5297033,6.6201041 40.5297033,7.93090203 L40.5297033,11.7705976 L43.195733,11.7705976 C44.324199,11.7705976 45.2289637,12.7197961 45.2289637,13.9417264 C45.2289637,15.0686602 44.324199,16.0209231 43.195733,16.0209231 L40.5297033,16.0209231 L40.5297033,27.2680443 C40.5297033,28.9396756 41.4796679,29.8436741 42.6081339,29.8436741 C42.9237673,29.8436741 43.3305667,29.7073082 43.6025324,29.7073082 C44.9117981,29.7073082 45.7253968,30.6120729 45.7253968,31.7880372 C45.7253968,33.2321366 44.415365,34.135369 41.3417698,34.135369" id="Fill-9" fill="#000000"></path>
                <path d="M67.8673096,14.7554017 L58.5599548,37.4817726 C57.112791,41.0495025 54.5371612,42.448402 51.4643321,42.448402 C49.7942331,42.448402 48.2566694,41.8179013 48.2566694,40.2826359 C48.2566694,39.1082039 49.2074001,38.1107411 50.5158997,38.1107411 C50.8330653,38.1107411 51.1027327,38.1567071 51.4198983,38.1107411 C52.5031644,38.0211073 53.4086952,37.5269725 53.9495621,36.3065744 L55.0351265,33.8665444 L47.2186033,14.7086696 C47.1274373,14.4390022 47.0814713,14.1655044 47.0814713,13.8943048 C47.0814713,12.7198728 48.032202,11.5002408 49.5215013,11.5002408 C50.4706998,11.5002408 51.3746984,12.088606 51.7814977,13.0814722 L57.5632581,27.9936181 L63.3480828,13.0814722 C63.6637162,12.1307415 64.615213,11.5002408 65.651747,11.5002408 C67.0537109,11.5002408 68.0465771,12.6746728 68.0465771,13.8491049 C68.0465771,14.1655044 68.0013772,14.48267 67.8673096,14.7554017" id="Fill-11" fill="#000000"></path>
                <path d="M102.026121,14.4822869 L96.7384957,31.5624972 C96.3316964,32.9154306 95.0193663,33.8669274 93.621999,33.8669274 L93.5300669,33.8669274 C92.0852014,33.8669274 90.8203695,32.9154306 90.4128041,31.5624972 L86.0314754,17.6899496 L81.6478484,31.5624972 C81.2418152,32.9154306 79.9294851,33.8669274 78.4853856,33.8669274 L78.3942197,33.8669274 C76.9945541,33.8669274 75.7304883,32.9154306 75.3244551,31.5624972 L69.9908635,14.4822869 C69.9441314,14.2562873 69.8981653,14.0325859 69.8981653,13.8035219 C69.8981653,12.6750559 70.8504282,11.4998577 72.2929954,11.4998577 C73.3364243,11.4998577 74.3269922,12.1755584 74.6004901,13.1730212 L78.755053,27.4960358 L83.3662118,13.3974886 C83.7270451,12.2682565 84.7643452,11.4998577 86.0766753,11.4998577 C87.2518735,11.4998577 88.2876413,12.2682565 88.6959729,13.3974886 L93.3071317,27.4960358 L97.4601624,13.1730212 C97.7328942,12.1755584 98.7249943,11.4998577 99.7645927,11.4998577 C101.166557,11.4998577 102.158657,12.5831238 102.158657,13.8035219 C102.158657,14.0325859 102.115755,14.2562873 102.026121,14.4822869" id="Fill-13" fill="#000000"></path>
                <path d="M108.577583,33.8667742 C107.223883,33.8667742 106.181987,32.782742 106.181987,31.4719441 L106.181987,13.8493347 C106.181987,12.5837367 107.223883,11.5004706 108.668749,11.5004706 C109.934347,11.5004706 111.018379,12.5837367 111.018379,13.8493347 L111.018379,31.4719441 C111.018379,32.782742 109.934347,33.8667742 108.577583,33.8667742" id="Fill-15" fill="#000000"></path>
                <path d="M131.711749,33.5951916 L118.202333,33.5951916 C116.936735,33.5951916 115.853469,32.554061 115.853469,31.1114938 C115.853469,30.5660303 116.076404,30.0259294 116.395868,29.5754624 L126.786489,16.0216126 L117.934198,16.0216126 C116.801901,16.0216126 115.853469,15.0685836 115.853469,13.8497177 C115.853469,12.7197195 116.801901,11.770521 117.934198,11.770521 L131.258217,11.770521 C132.388216,11.770521 133.519746,12.7672178 133.519746,14.1193851 C133.519746,14.7092825 133.337414,15.2524477 133.022547,15.6577149 L122.494028,29.3923643 L131.711749,29.3923643 C132.795015,29.3923643 133.74498,30.297129 133.74498,31.4263611 C133.74498,32.6459931 132.795015,33.5951916 131.711749,33.5951916" id="Fill-17" fill="#000000"></path>
            </g>
        </g>
    </g>
</svg>