<?xml version="1.0" encoding="UTF-8" standalone="no"?>
<svg width="13px" height="12px" viewBox="0 0 13 12" version="1.1" xmlns="http://www.w3.org/2000/svg" xmlns:xlink="http://www.w3.org/1999/xlink">
    <!-- Generator: Sketch 3.8.3 (29802) - http://www.bohemiancoding.com/sketch -->
    <title>grey stroke star</title>
    <desc>Created with Sketch.</desc>
    <defs>
        <path d="M11.9699839,4.97445494 C11.9004085,4.76050236 11.7192837,4.60191614 11.4979816,4.56124882 L8.49178459,4.00979013 L7.03845863,1.32125551 C6.93140068,1.12330855 6.72455263,1 6.49965744,1 C6.27476225,1 6.06783254,1.12330855 5.96085625,1.32125551 L4.50744863,4.00987179 L1.50190489,4.56133048 C1.28068445,4.60191614 1.09947805,4.76050236 1.0299843,4.97445494 C0.960490539,5.18840752 1.01381536,5.42318372 1.16897181,5.586098 L3.2764047,7.79911893 L2.87160969,10.8280995 C2.84180332,11.0510348 2.93669374,11.2724185 3.11871675,11.4047098 C3.22528473,11.4820431 3.35161475,11.5216488 3.47876137,11.5216488 C3.56883377,11.5216488 3.65931448,11.5018868 3.74342561,11.4615461 L6.49965744,10.1403481 L9.25588927,11.4615461 C9.45857259,11.5588047 9.69857512,11.5370011 9.88059813,11.4047915 C10.0626211,11.2725819 10.1574299,11.0511981 10.1276235,10.8280995 L9.7226652,7.79920059 L11.830833,5.58626132 C11.9861528,5.42334705 12.0395593,5.18848918 11.9699839,4.97445494 L11.9699839,4.97445494 Z" id="path-1"></path>
        <mask id="mask-2" maskContentUnits="userSpaceOnUse" maskUnits="objectBoundingBox" x="0" y="0" width="11" height="10.5217353" fill="white">
            <use xlink:href="#path-1"></use>
        </mask>
    </defs>
    <g id="Page-1" stroke="none" stroke-width="1" fill="none" fill-rule="evenodd">
        <g id="grey-stroke-star" stroke="#EDEDED" stroke-width="2">
            <use id="Shape" mask="url(#mask-2)" xlink:href="#path-1"></use>
        </g>
    </g>
</svg>