<?xml version="1.0" encoding="UTF-8" standalone="no"?>
<svg width="13px" height="12px" viewBox="0 0 13 12" version="1.1" xmlns="http://www.w3.org/2000/svg" xmlns:xlink="http://www.w3.org/1999/xlink">
    <!-- Generator: Sketch 3.8.3 (29802) - http://www.bohemiancoding.com/sketch -->
    <title>orange star</title>
    <desc>Created with Sketch.</desc>
    <defs></defs>
    <g id="Page-1" stroke="none" stroke-width="1" fill="none" fill-rule="evenodd">
        <g id="orange-star" fill="#FAA600">
            <path d="M11.9699839,4.8464633 C11.9004085,4.63940076 11.7192837,4.48592158 11.4979816,4.44656389 L8.49178459,3.91286414 L7.03845863,1.31090994 C6.93140068,1.11933757 6.72455263,1 6.49965744,1 C6.27476225,1 6.06783254,1.11933757 5.96085625,1.31090994 L4.50744863,3.91294318 L1.50190489,4.44664292 C1.28068445,4.48592158 1.09947805,4.63940076 1.0299843,4.8464633 C0.960490539,5.05352584 1.01381536,5.28074142 1.16897181,5.43840927 L3.2764047,7.58016303 L2.87160969,10.5115996 C2.84180332,10.7273556 2.93669374,10.94161 3.11871675,11.069641 C3.22528473,11.1444839 3.35161475,11.1828141 3.47876137,11.1828141 C3.56883377,11.1828141 3.65931448,11.1636885 3.74342561,11.124647 L6.49965744,9.84599625 L9.25588927,11.124647 C9.45857259,11.2187735 9.69857512,11.1976721 9.88059813,11.0697201 C10.0626211,10.9417681 10.1574299,10.7275136 10.1276235,10.5115996 L9.7226652,7.58024206 L11.830833,5.43856733 C11.9861528,5.28089948 12.0395593,5.05360487 11.9699839,4.8464633 L11.9699839,4.8464633 Z" id="Shape"></path>
        </g>
    </g>
</svg>